<mxfile host="Electron" modified="2023-05-12T20:32:42.546Z" agent="Mozilla/5.0 (Windows NT 10.0; Win64; x64) AppleWebKit/537.36 (KHTML, like Gecko) draw.io/21.2.8 Chrome/112.0.5615.165 Electron/24.2.0 Safari/537.36" etag="rv8zuggxtISpHGMeQgz_" version="21.2.8" type="device">
  <diagram name="Page-1" id="8ONlorpiOMqzei_Hr31C">
    <mxGraphModel dx="1888" dy="608" grid="1" gridSize="10" guides="1" tooltips="1" connect="1" arrows="1" fold="1" page="1" pageScale="1" pageWidth="850" pageHeight="1100" math="0" shadow="0">
      <root>
        <mxCell id="0" />
        <mxCell id="1" parent="0" />
        <mxCell id="xWpv-XHno5WYTx6eyYwm-2" value="" style="edgeStyle=orthogonalEdgeStyle;rounded=0;orthogonalLoop=1;jettySize=auto;html=1;" edge="1" parent="1" source="huVnV-XlpUXbd2UkdL1Y-2" target="xWpv-XHno5WYTx6eyYwm-1">
          <mxGeometry relative="1" as="geometry" />
        </mxCell>
        <mxCell id="huVnV-XlpUXbd2UkdL1Y-2" value="Login" style="whiteSpace=wrap;html=1;rounded=0;" parent="1" vertex="1">
          <mxGeometry x="300" y="170" width="120" height="60" as="geometry" />
        </mxCell>
        <mxCell id="xWpv-XHno5WYTx6eyYwm-4" value="" style="edgeStyle=orthogonalEdgeStyle;rounded=0;orthogonalLoop=1;jettySize=auto;html=1;" edge="1" parent="1" source="xWpv-XHno5WYTx6eyYwm-1" target="xWpv-XHno5WYTx6eyYwm-3">
          <mxGeometry relative="1" as="geometry" />
        </mxCell>
        <mxCell id="xWpv-XHno5WYTx6eyYwm-6" value="" style="edgeStyle=orthogonalEdgeStyle;rounded=0;orthogonalLoop=1;jettySize=auto;html=1;" edge="1" parent="1" source="xWpv-XHno5WYTx6eyYwm-1" target="xWpv-XHno5WYTx6eyYwm-5">
          <mxGeometry relative="1" as="geometry" />
        </mxCell>
        <mxCell id="xWpv-XHno5WYTx6eyYwm-20" value="" style="edgeStyle=orthogonalEdgeStyle;rounded=0;orthogonalLoop=1;jettySize=auto;html=1;" edge="1" parent="1" source="xWpv-XHno5WYTx6eyYwm-1" target="xWpv-XHno5WYTx6eyYwm-19">
          <mxGeometry relative="1" as="geometry" />
        </mxCell>
        <mxCell id="xWpv-XHno5WYTx6eyYwm-26" style="edgeStyle=orthogonalEdgeStyle;rounded=0;orthogonalLoop=1;jettySize=auto;html=1;exitX=1;exitY=1;exitDx=0;exitDy=0;" edge="1" parent="1" source="xWpv-XHno5WYTx6eyYwm-1" target="xWpv-XHno5WYTx6eyYwm-25">
          <mxGeometry relative="1" as="geometry">
            <Array as="points">
              <mxPoint x="300" y="370" />
              <mxPoint x="300" y="405" />
              <mxPoint x="150" y="405" />
            </Array>
          </mxGeometry>
        </mxCell>
        <mxCell id="xWpv-XHno5WYTx6eyYwm-1" value="Dashboard" style="whiteSpace=wrap;html=1;rounded=0;" vertex="1" parent="1">
          <mxGeometry x="300" y="310" width="120" height="60" as="geometry" />
        </mxCell>
        <mxCell id="xWpv-XHno5WYTx6eyYwm-16" style="edgeStyle=orthogonalEdgeStyle;rounded=0;orthogonalLoop=1;jettySize=auto;html=1;exitX=0;exitY=0.5;exitDx=0;exitDy=0;entryX=1;entryY=0.5;entryDx=0;entryDy=0;" edge="1" parent="1" source="xWpv-XHno5WYTx6eyYwm-3" target="xWpv-XHno5WYTx6eyYwm-15">
          <mxGeometry relative="1" as="geometry" />
        </mxCell>
        <mxCell id="xWpv-XHno5WYTx6eyYwm-27" style="edgeStyle=orthogonalEdgeStyle;rounded=0;orthogonalLoop=1;jettySize=auto;html=1;exitX=0.5;exitY=1;exitDx=0;exitDy=0;" edge="1" parent="1" source="xWpv-XHno5WYTx6eyYwm-3" target="xWpv-XHno5WYTx6eyYwm-25">
          <mxGeometry relative="1" as="geometry">
            <Array as="points">
              <mxPoint x="140" y="370" />
              <mxPoint x="140" y="405" />
              <mxPoint x="130" y="405" />
            </Array>
          </mxGeometry>
        </mxCell>
        <mxCell id="xWpv-XHno5WYTx6eyYwm-3" value="Account" style="whiteSpace=wrap;html=1;rounded=0;" vertex="1" parent="1">
          <mxGeometry x="100" y="310" width="120" height="60" as="geometry" />
        </mxCell>
        <mxCell id="xWpv-XHno5WYTx6eyYwm-18" value="" style="edgeStyle=orthogonalEdgeStyle;rounded=0;orthogonalLoop=1;jettySize=auto;html=1;" edge="1" parent="1" source="xWpv-XHno5WYTx6eyYwm-5" target="xWpv-XHno5WYTx6eyYwm-17">
          <mxGeometry relative="1" as="geometry" />
        </mxCell>
        <mxCell id="xWpv-XHno5WYTx6eyYwm-5" value="Settings" style="whiteSpace=wrap;html=1;rounded=0;" vertex="1" parent="1">
          <mxGeometry x="300" y="450" width="120" height="60" as="geometry" />
        </mxCell>
        <mxCell id="xWpv-XHno5WYTx6eyYwm-15" value="Websites related to the account&lt;br&gt;Account Information&lt;br&gt;Email Confirmation" style="ellipse;whiteSpace=wrap;html=1;" vertex="1" parent="1">
          <mxGeometry x="-270" y="252.5" width="220" height="175" as="geometry" />
        </mxCell>
        <mxCell id="xWpv-XHno5WYTx6eyYwm-17" value="Language&lt;br&gt;add new inputs to the account information or website details accessable via admin" style="ellipse;whiteSpace=wrap;html=1;rounded=0;" vertex="1" parent="1">
          <mxGeometry x="245" y="570" width="230" height="180" as="geometry" />
        </mxCell>
        <mxCell id="xWpv-XHno5WYTx6eyYwm-21" style="edgeStyle=orthogonalEdgeStyle;rounded=0;orthogonalLoop=1;jettySize=auto;html=1;exitX=0.5;exitY=0;exitDx=0;exitDy=0;entryX=1;entryY=0.5;entryDx=0;entryDy=0;" edge="1" parent="1" source="xWpv-XHno5WYTx6eyYwm-19" target="huVnV-XlpUXbd2UkdL1Y-2">
          <mxGeometry relative="1" as="geometry" />
        </mxCell>
        <mxCell id="xWpv-XHno5WYTx6eyYwm-19" value="Logout" style="whiteSpace=wrap;html=1;rounded=0;" vertex="1" parent="1">
          <mxGeometry x="500" y="310" width="120" height="60" as="geometry" />
        </mxCell>
        <mxCell id="xWpv-XHno5WYTx6eyYwm-25" value="List of accounts and option to add account" style="ellipse;whiteSpace=wrap;html=1;" vertex="1" parent="1">
          <mxGeometry x="40" y="440" width="220" height="120" as="geometry" />
        </mxCell>
      </root>
    </mxGraphModel>
  </diagram>
</mxfile>
